<svg width="16" height="14" viewBox="0 0 16 14" fill="none" xmlns="http://www.w3.org/2000/svg">
<path d="M6.93976 14C5.01205 14 3.37349 13.3194 2.0241 11.9583C0.674699 10.5972 0 8.94444 0 7C0 6.02778 0.183133 5.11713 0.549398 4.26806C0.915663 3.41898 1.41044 2.68009 2.03373 2.05139C2.65703 1.42269 3.38956 0.923611 4.23133 0.554167C5.07309 0.184722 5.9759 0 6.93976 0C7.90361 0 8.80643 0.184722 9.64819 0.554167C10.49 0.923611 11.2225 1.42269 11.8458 2.05139C12.4691 2.68009 12.9639 3.41898 13.3301 4.26806C13.6964 5.11713 13.8795 6.02778 13.8795 7V7.15556L14.9012 6.10556L16 7.19444L13.1084 10.1111L10.2169 7.19444L11.3157 6.10556L12.3373 7.13611V7C12.3373 5.4963 11.8104 4.21296 10.7566 3.15C9.70281 2.08704 8.43052 1.55556 6.93976 1.55556C5.449 1.55556 4.17671 2.08704 3.12289 3.15C2.06908 4.21296 1.54217 5.4963 1.54217 7C1.55502 8.5037 2.08514 9.78704 3.13253 10.85C4.17992 11.913 5.449 12.4444 6.93976 12.4444C7.67229 12.4444 8.35984 12.3051 9.00241 12.0264C9.64498 11.7477 10.2104 11.3685 10.6988 10.8889L11.7976 11.9972C11.1679 12.6194 10.4386 13.1088 9.60964 13.4653C8.78072 13.8218 7.89076 14 6.93976 14Z" fill="white"/>
</svg>
