<svg width="16" height="16" viewBox="0 0 16 16" fill="none" xmlns="http://www.w3.org/2000/svg">
<path d="M4 12H8V10H4V12ZM4 9H12V7H4V9ZM4 6H12V4H4V6ZM2 16C1.45 16 0.979167 15.8042 0.5875 15.4125C0.195833 15.0208 0 14.55 0 14V2C0 1.45 0.195833 0.979167 0.5875 0.5875C0.979167 0.195833 1.45 0 2 0H14C14.55 0 15.0208 0.195833 15.4125 0.5875C15.8042 0.979167 16 1.45 16 2V14C16 14.55 15.8042 15.0208 15.4125 15.4125C15.0208 15.8042 14.55 16 14 16H2Z" fill="url(#paint0_linear_53_34)"/>
<defs>
<linearGradient id="paint0_linear_53_34" x1="2" y1="-2.5" x2="12.5" y2="19" gradientUnits="userSpaceOnUse">
<stop stop-color="#A2FFEE"/>
<stop offset="1" stop-color="#3AA6DB"/>
</linearGradient>
</defs>
</svg>
