<svg width="16" height="16" viewBox="0 0 16 16" fill="none" xmlns="http://www.w3.org/2000/svg">
<path fill-rule="evenodd" clip-rule="evenodd" d="M4.69256 11.8227C4.5875 11.5956 4.40447 11.4125 4.17731 11.3074C2.4093 10.4897 1.01067 9.3104 0.264107 8.60321C-0.0880368 8.26962 -0.0880352 7.73037 0.264108 7.39678C1.01067 6.68956 2.4093 5.51031 4.1773 4.69257C4.40447 4.5875 4.5875 4.40447 4.69256 4.17731C5.51031 2.40931 6.68956 1.01067 7.39678 0.264107C7.73037 -0.0880363 8.26962 -0.0880355 8.60321 0.264108C9.3104 1.01067 10.4897 2.40931 11.3074 4.17731C11.4125 4.40447 11.5956 4.5875 11.8227 4.69256C13.5907 5.51031 14.9893 6.68956 15.7359 7.39678C16.088 7.73037 16.088 8.26962 15.7359 8.60321C14.9893 9.3104 13.5907 10.4897 11.8227 11.3074C11.5956 11.4125 11.4125 11.5956 11.3074 11.8227C10.4897 13.5907 9.3104 14.9893 8.60321 15.7359C8.26962 16.088 7.73037 16.088 7.39678 15.7359C6.68956 14.9893 5.51031 13.5907 4.69256 11.8227ZM8.00002 10.9407C9.62407 10.9407 10.9407 9.62407 10.9407 8.00002C10.9407 6.3759 9.62407 5.05932 8.00002 5.05932C6.37591 5.05932 5.05934 6.3759 5.05934 8.00002C5.05934 9.62407 6.37591 10.9407 8.00002 10.9407Z" fill="url(#paint0_radial_18_282)"/>
<defs>
<radialGradient id="paint0_radial_18_282" cx="0" cy="0" r="1" gradientUnits="userSpaceOnUse" gradientTransform="translate(2.55995 2.51996) rotate(5.44033) scale(11.813 30.6296)">
<stop stop-color="#7755FF"/>
<stop offset="1" stop-color="#37B6FF"/>
</radialGradient>
</defs>
</svg>
