<svg width="16" height="16" viewBox="0 0 16 16" fill="none" xmlns="http://www.w3.org/2000/svg">
<path fill-rule="evenodd" clip-rule="evenodd" d="M1.47435 5.29698C1.25166 4.2652 1.54126 3.14502 2.34314 2.34314C3.14503 1.54126 4.2652 1.25166 5.29698 1.47434C5.8691 0.587305 6.86597 0 8 0C9.134 0 10.1309 0.587306 10.703 1.47435C11.7348 1.25166 12.855 1.54126 13.6569 2.34314C14.4587 3.14503 14.7483 4.2652 14.5257 5.29698C15.4127 5.8691 16 6.86597 16 8C16 9.134 15.4127 10.1309 14.5257 10.703C14.7483 11.7348 14.4587 12.855 13.6569 13.6569C12.855 14.4587 11.7348 14.7483 10.703 14.5257C10.1309 15.4127 9.134 16 8 16C6.86597 16 5.86911 15.4127 5.29698 14.5257C4.2652 14.7483 3.14503 14.4587 2.34314 13.6569C1.54126 12.855 1.25166 11.7348 1.47435 10.703C0.587306 10.1309 0 9.134 0 8C0 6.86597 0.587306 5.8691 1.47435 5.29698ZM5.71644 10.2796C6.97163 11.5347 9.00672 11.5347 10.2619 10.2796C11.5171 9.0244 11.5171 6.9893 10.2619 5.7341C9.00672 4.4789 6.97163 4.4789 5.71644 5.7341C4.46125 6.9893 4.46125 9.0244 5.71644 10.2796Z" fill="url(#paint0_radial_53_40)"/>
<defs>
<radialGradient id="paint0_radial_53_40" cx="0" cy="0" r="1" gradientUnits="userSpaceOnUse" gradientTransform="translate(2.55995 2.51996) rotate(5.44033) scale(11.813 30.6296)">
<stop stop-color="#5585FF"/>
<stop offset="1" stop-color="#CB37FF"/>
</radialGradient>
</defs>
</svg>
